<svg viewBox="0 0 110 220" preserveAspectRatio="xMidYMax meet" xmlns="http://www.w3.org/2000/svg">
  <path d="M52,220 C50,170 56,120 56,70 C56,40 54,20 52,8" stroke="#020108" stroke-width="5" fill="none" stroke-linecap="round"/>
  <g stroke="#0a0612" stroke-width="1" opacity="0.6">
    <line x1="46" y1="190" x2="58" y2="188"/>
    <line x1="48" y1="160" x2="60" y2="158"/>
    <line x1="50" y1="130" x2="60" y2="128"/>
    <line x1="51" y1="100" x2="61" y2="98"/>
    <line x1="52" y1="70" x2="60" y2="68"/>
  </g>
  <g fill="#000" stroke="#000" stroke-linejoin="round">
    <path d="M52,10 C32,2 12,6 0,24 C18,16 36,16 50,22 Z"/>
    <path d="M52,10 C72,2 96,8 108,28 C90,18 70,18 56,24 Z"/>
    <path d="M52,10 C40,16 24,34 14,60 C32,42 46,32 52,26 Z"/>
    <path d="M52,10 C66,16 84,36 96,64 C78,46 62,34 54,26 Z"/>
    <path d="M52,10 C46,28 42,52 42,80 C50,58 52,40 54,26 Z"/>
  </g>
  <circle cx="52" cy="16" r="2.5" fill="#000"/>
  <circle cx="56" cy="18" r="2.5" fill="#000"/>
</svg>
