<svg viewBox="0 0 95 200" preserveAspectRatio="xMidYMax meet" xmlns="http://www.w3.org/2000/svg">
  <path d="M46,200 C44,150 48,100 48,60 C48,30 46,16 44,8" stroke="#020108" stroke-width="4" fill="none" stroke-linecap="round"/>
  <g stroke="#0a0612" stroke-width="1" opacity="0.6">
    <line x1="40" y1="170" x2="52" y2="172"/>
    <line x1="42" y1="140" x2="54" y2="142"/>
    <line x1="44" y1="110" x2="54" y2="112"/>
    <line x1="46" y1="80" x2="54" y2="82"/>
  </g>
  <g fill="#020108" stroke="#020108" stroke-linejoin="round">
    <path d="M46,10 C28,2 10,6 0,22 C16,14 32,14 44,20 Z"/>
    <path d="M46,10 C62,2 84,8 94,26 C78,16 60,16 48,22 Z"/>
    <path d="M46,10 C36,16 22,32 14,56 C30,40 42,30 46,24 Z"/>
    <path d="M46,10 C58,16 74,34 84,60 C70,44 56,32 48,24 Z"/>
    <path d="M46,10 C42,28 38,52 38,76 C44,56 46,38 48,24 Z"/>
  </g>
</svg>
