<svg viewBox="0 0 170 320" preserveAspectRatio="xMidYMax meet" xmlns="http://www.w3.org/2000/svg">
  <path d="M82,320 C84,250 78,180 80,110 C82,70 86,30 88,10" stroke="#020108" stroke-width="6.5" fill="none" stroke-linecap="round"/>
  <g stroke="#0a0612" stroke-width="1" opacity="0.6">
    <line x1="78" y1="280" x2="92" y2="282"/>
    <line x1="78" y1="245" x2="91" y2="247"/>
    <line x1="79" y1="210" x2="91" y2="212"/>
    <line x1="80" y1="175" x2="91" y2="177"/>
    <line x1="82" y1="140" x2="92" y2="142"/>
    <line x1="84" y1="105" x2="92" y2="107"/>
    <line x1="85" y1="70" x2="92" y2="72"/>
  </g>
  <g fill="#000" stroke="#000" stroke-linejoin="round">
    <path d="M88,12 C62,0 30,4 6,30 C32,18 60,18 84,26 Z"/>
    <path d="M88,12 C118,0 150,8 168,32 C140,18 112,18 92,26 Z"/>
    <path d="M88,12 C68,18 42,46 22,82 C52,58 74,42 88,32 Z"/>
    <path d="M88,12 C108,18 134,46 152,86 C124,58 102,42 90,32 Z"/>
    <path d="M88,12 C78,32 70,66 68,104 C80,76 86,52 90,30 Z"/>
    <path d="M88,12 C98,32 108,66 114,108 C100,76 92,52 90,30 Z"/>
    <path d="M88,12 C76,8 62,2 50,4 C66,12 78,18 86,26 Z" opacity="0.85"/>
  </g>
  <circle cx="86" cy="20" r="3.5" fill="#000"/>
  <circle cx="92" cy="22" r="3.5" fill="#000"/>
  <circle cx="82" cy="24" r="3" fill="#000"/>
  <circle cx="90" cy="28" r="2.5" fill="#000"/>
</svg>
